<svg id="logo" xmlns="http://www.w3.org/2000/svg" viewBox="0 0 2000 800"><defs><style>.cls-1{fill:#68bd8c;}</style></defs><title>logo_hr</title><path class="cls-1" d="M428.81,431.37a156,156,0,0,1-62.16-29.21c-22.65,39.7-27.44,78.26-11.13,109,26.23,49.39,99.8,64.94,190.13,42.2-1.91-58.69-48.26-107.13-116.84-122Z"/><path class="cls-1" d="M887.1,225.49a395.29,395.29,0,0,1-76.42,58.44,420.77,420.77,0,0,1-76,35c-110,38.89-176.89,123.85-168.78,216q.54,6.16,1.51,12.2a505.22,505.22,0,0,0,86.34-36.4C754.43,457.35,835.4,373,863.57,307.46c-24.76,77-119,181.24-238.89,244.92q-13.83,7.35-27.52,13.72c127,24.72,235.74-5.38,290.52-86.05C934.56,411,932.45,318.9,887.1,225.49Z"/><path class="cls-1" d="M1052.51,562.71a3,3,0,0,1-.88-2.25V503.4H1040a3.16,3.16,0,0,1-2.24-.81,2.81,2.81,0,0,1-.89-2.17v-4.35a3,3,0,0,1,3.13-3.13h11.68V485q0-11,5.37-17.05t17.59-6h8a3,3,0,0,1,3.12,3.12v4.35a2.79,2.79,0,0,1-.88,2.17,3.16,3.16,0,0,1-2.24.82h-7.75q-6.24,0-8.69,3.26c-1.63,2.17-2.45,5.53-2.45,10.05v7.25h17.53a3,3,0,0,1,3.12,3.13v4.35a2.8,2.8,0,0,1-.88,2.17,3.2,3.2,0,0,1-2.24.81h-17.53v57.06a3,3,0,0,1-3.12,3.13h-5.84A3,3,0,0,1,1052.51,562.71Z"/><path class="cls-1" d="M1099.57,556.52q-8.08-8.41-8.63-22.41l-.13-5.84.13-5.85q.54-14,8.76-22.41t22.9-8.42q14.67,0,22.89,8.42t8.76,22.41c.18,2,.27,3.94.27,5.85s-.09,3.85-.27,5.84q-.54,14-8.63,22.41t-23,8.43Q1107.65,565,1099.57,556.52Zm36.81-7.26q5.1-5.5,5.51-15.83c.09-.91.13-2.63.13-5.16s0-4.26-.13-5.17q-.41-10.32-5.51-15.82t-13.78-5.51q-8.7,0-13.79,5.51t-5.51,15.82l-.13,5.17.13,5.16q.42,10.32,5.51,15.83t13.79,5.5Q1131.29,554.76,1136.38,549.26Z"/><path class="cls-1" d="M1169.52,562.71a3,3,0,0,1-.88-2.25V496.2a3.28,3.28,0,0,1,.88-2.31,3,3,0,0,1,2.24-.95h5.71a3,3,0,0,1,3.26,3.26v6q5.57-9.24,18.88-9.24h5.3a2.85,2.85,0,0,1,3.13,3.13v5a3.16,3.16,0,0,1-.82,2.24,3,3,0,0,1-2.31.88h-7.74q-7.47,0-11.75,4.35t-4.28,11.82v40.07a3,3,0,0,1-1,2.25,3.28,3.28,0,0,1-2.31.88h-6.12A3,3,0,0,1,1169.52,562.71Z"/><path class="cls-1" d="M1264.43,562.5a3.47,3.47,0,0,1-1.09-2.54V529l-33.55-62.45a3.08,3.08,0,0,1-.44-1.6,3.25,3.25,0,0,1,3.05-3.05h19.17a5.31,5.31,0,0,1,3.34,1,6.52,6.52,0,0,1,1.89,2.18L1277,501.57l20.19-36.46a6.63,6.63,0,0,1,1.89-2.18,5.31,5.31,0,0,1,3.34-1h19.17a3.22,3.22,0,0,1,3.05,3.05,3.07,3.07,0,0,1-.43,1.6L1290.64,529V560a3.43,3.43,0,0,1-1.08,2.61,3.8,3.8,0,0,1-2.69,1H1267A3.45,3.45,0,0,1,1264.43,562.5Z"/><path class="cls-1" d="M1327.16,556.54q-9.81-8.49-10.68-24.18c-.1-1.26-.14-3.43-.14-6.53s0-5.28.14-6.54q.87-15.39,11-24t27.81-8.64q17.71,0,27.81,8.64t11,24q.29,3.78.29,6.54c0,1.84-.1,4-.29,6.53q-.87,15.69-10.67,24.18t-28.11,8.5Q1337,565,1327.16,556.54Zm37-13.5q2.91-3.7,3.34-11.41c.1-1,.15-2.9.15-5.8s0-4.85-.15-5.81q-.43-7.56-3.34-11.33t-8.86-3.78q-6,0-8.86,3.78T1343.06,520l-.15,5.81.15,5.8q.43,7.71,3.34,11.41t8.86,3.7Q1361.22,546.74,1364.12,543Z"/><path class="cls-1" d="M1413.68,556.47q-7.85-8.57-7.84-24.25V491.69a3.4,3.4,0,0,1,1.09-2.61,3.58,3.58,0,0,1,2.54-1h19.32a3.76,3.76,0,0,1,2.68,1,3.4,3.4,0,0,1,1.09,2.61v39.65q0,13.51,12.06,13.51,5.81,0,9.08-3.56t3.26-9.95V491.69a3.44,3.44,0,0,1,1.09-2.61,3.79,3.79,0,0,1,2.69-1h19.17a3.48,3.48,0,0,1,3.63,3.63V560a3.63,3.63,0,0,1-1,2.54,3.41,3.41,0,0,1-2.62,1.09h-17.72a3.8,3.8,0,0,1-2.69-1,3.43,3.43,0,0,1-1.08-2.61v-5.52q-7.56,10.6-24.11,10.6Q1421.52,565,1413.68,556.47Z"/><path class="cls-1" d="M1510.15,534.68V507.81h-11.47a3.71,3.71,0,0,1-3.63-3.63V491.69a3.4,3.4,0,0,1,1.09-2.61,3.58,3.58,0,0,1,2.54-1h11.47v-24a3.45,3.45,0,0,1,1.09-2.62,3.65,3.65,0,0,1,2.54-1h17.87a3.48,3.48,0,0,1,3.63,3.63v24h18.16a3.76,3.76,0,0,1,2.68,1,3.4,3.4,0,0,1,1.09,2.61v12.49a3.41,3.41,0,0,1-1.09,2.62,3.76,3.76,0,0,1-2.68,1h-18.16v24.7q0,5.09,1.89,7.69t6.1,2.62h11.47a3.41,3.41,0,0,1,2.62,1.09,3.8,3.8,0,0,1,1,2.68V560a3.63,3.63,0,0,1-1,2.54,3.41,3.41,0,0,1-2.62,1.09H1541Q1510.16,563.59,1510.15,534.68Z"/><path class="cls-1" d="M1571,562.57a3.44,3.44,0,0,1-1.09-2.61V464.1a3.45,3.45,0,0,1,1.09-2.62,3.82,3.82,0,0,1,2.69-1h19.61a3.8,3.8,0,0,1,2.68,1,3.41,3.41,0,0,1,1.09,2.62v32.39q8.43-9.89,22.81-9.88a29.86,29.86,0,0,1,15,3.78,26,26,0,0,1,10.45,11.18q3.78,7.41,3.78,17.86V560a3.4,3.4,0,0,1-1.09,2.61,3.77,3.77,0,0,1-2.69,1h-19.75a3.73,3.73,0,0,1-3.63-3.63V520.31q0-6.39-3.2-9.95t-9.15-3.56q-5.8,0-9.15,3.56t-3.34,9.95V560a3.4,3.4,0,0,1-1.09,2.61,3.76,3.76,0,0,1-2.68,1h-19.61A3.79,3.79,0,0,1,1571,562.57Z"/><path class="cls-1" d="M1052,413.05q-18.84-15.94-20-46.68-.23-6.24-.23-20.34,0-14.32.23-20.8,1.15-30,20.22-46.34t51.66-16.29q20.57,0,36.86,6.7t25.77,19.41q9.46,12.72,9.93,30.05a4.54,4.54,0,0,1-1.5,3.47,5.1,5.1,0,0,1-3.58,1.38h-32.82a7.26,7.26,0,0,1-4.74-1.27,10.61,10.61,0,0,1-2.65-4.74q-3.24-11.31-9.83-15.83t-17.44-4.5q-26.13,0-27,29.12-.24,6.24-.24,19.18t.24,19.64q.92,29.12,27,29.12,10.62,0,17.44-4.62t9.83-15.72q.91-3.47,2.54-4.73a7.74,7.74,0,0,1,4.85-1.27h32.82a5.1,5.1,0,0,1,3.58,1.38,4.54,4.54,0,0,1,1.5,3.47q-.47,17.32-9.93,30t-25.77,19.42q-16.29,6.69-36.86,6.7Q1070.81,429,1052,413.05Z"/><path class="cls-1" d="M1215.26,413.05q-19-15.94-20.11-46.91-.23-6.47-.23-19.88t.23-20.11q.93-30.5,20.22-47T1267,262.6q32.12,0,51.42,16.52t20.22,47q.46,13.41.46,20.11,0,6.93-.46,19.88-1.15,31-20,46.91T1267,429Q1234.21,429,1215.26,413.05Zm71-26q7.15-7.28,7.63-22.3.45-13.39.46-19.18t-.46-18.72q-.46-15-7.63-22.3T1267,297.27q-12.26,0-19.42,7.28t-7.62,22.3q-.24,6.47-.23,18.72,0,12.48.23,19.18.45,15,7.62,22.3t19.42,7.28Q1279,394.33,1286.21,387.05Z"/><path class="cls-1" d="M1367,425a5.54,5.54,0,0,1-1.73-4v-150a6.05,6.05,0,0,1,1.62-4.28,5.43,5.43,0,0,1,4.16-1.73h60.78q34.2,0,53.15,16.29t19.88,46.8q.23,6.71.23,17.8t-.23,17.56q-2.31,63.33-71.88,63.33H1371A5.54,5.54,0,0,1,1367,425ZM1431.81,392q14.55,0,21.49-6.93t7.4-22.19q.45-6.7.46-17.33t-.46-17.1q-.46-14.79-8-21.84t-22.07-7.05h-22V392Z"/><path class="cls-1" d="M1533.15,425a5.51,5.51,0,0,1-1.73-4v-150a6,6,0,0,1,1.61-4.28,5.46,5.46,0,0,1,4.16-1.73h109.09a5.93,5.93,0,0,1,6,6V293.8a5.42,5.42,0,0,1-1.74,4.16,6,6,0,0,1-4.27,1.62h-73v29.35h67.94a5.91,5.91,0,0,1,6,6v21a5.93,5.93,0,0,1-6,6h-67.94v30h74.88a5.91,5.91,0,0,1,6,6v22.88a5.41,5.41,0,0,1-1.73,4.16,6,6,0,0,1-4.27,1.62H1537.19A5.52,5.52,0,0,1,1533.15,425Z"/></svg>