<svg id="logo" xmlns="http://www.w3.org/2000/svg" viewBox="0 0 500 500"><defs><style>.cls-1{fill:#fff;}</style></defs><title>logo_sq</title><path class="cls-1" d="M152.09,189.45a74.33,74.33,0,0,1-29.67-13.94c-10.81,19-13.1,37.36-5.31,52,12.52,23.57,47.63,31,90.75,20.14-.91-28-23-51.13-55.77-58.22Z"/><path class="cls-1" d="M370.85,91.18a188.72,188.72,0,0,1-36.48,27.9,201,201,0,0,1-36.26,16.72c-52.52,18.56-84.43,59.11-80.56,103.12q.25,2.94.72,5.82a240.57,240.57,0,0,0,41.21-17.37c48-25.52,86.69-65.76,100.14-97.06-11.82,36.75-56.8,86.51-114,116.91q-6.6,3.5-13.14,6.55c60.62,11.79,112.53-2.57,138.68-41.08C393.5,179.74,392.49,135.77,370.85,91.18Z"/><path class="cls-1" d="M125.44,407.85a1.27,1.27,0,0,1-.37-.94V383.14H120.2a1.29,1.29,0,0,1-.93-.34,1.17,1.17,0,0,1-.37-.91v-1.81a1.26,1.26,0,0,1,1.3-1.3h4.87v-3.91c0-3.05.74-5.42,2.24-7.1s3.93-2.52,7.33-2.52H138a1.26,1.26,0,0,1,.93.37,1.28,1.28,0,0,1,.37.93v1.81a1.2,1.2,0,0,1-.37.91,1.32,1.32,0,0,1-.93.34h-3.23c-1.74,0-2.94.45-3.62,1.36a7,7,0,0,0-1,4.19v3.62h7.3a1.26,1.26,0,0,1,1.3,1.3v1.81a1.17,1.17,0,0,1-.37.91,1.29,1.29,0,0,1-.93.34h-7.3v23.77a1.27,1.27,0,0,1-1.3,1.31h-2.44A1.27,1.27,0,0,1,125.44,407.85Z"/><path class="cls-1" d="M145,405.27a13.75,13.75,0,0,1-3.59-9.34l-.06-2.43.06-2.43a13.6,13.6,0,0,1,3.65-9.34q3.42-3.51,9.54-3.51t9.53,3.51a13.61,13.61,0,0,1,3.66,9.34c.07.83.11,1.64.11,2.43s0,1.6-.11,2.43a13.76,13.76,0,0,1-3.6,9.34q-3.36,3.51-9.59,3.51T145,405.27Zm15.34-3a9.89,9.89,0,0,0,2.29-6.59c0-.38.06-1.09.06-2.15s0-1.77-.06-2.15a9.94,9.94,0,0,0-2.29-6.6,8.35,8.35,0,0,0-11.49,0,10,10,0,0,0-2.29,6.6l-.06,2.15.06,2.15a10,10,0,0,0,2.29,6.59,8.33,8.33,0,0,0,11.49,0Z"/><path class="cls-1" d="M174.19,407.85a1.27,1.27,0,0,1-.37-.94V380.14a1.33,1.33,0,0,1,.37-1,1.18,1.18,0,0,1,.93-.4h2.38a1.38,1.38,0,0,1,1,.37,1.34,1.34,0,0,1,.37,1v2.49c1.55-2.56,4.17-3.85,7.87-3.85h2.2a1.3,1.3,0,0,1,1,.34,1.34,1.34,0,0,1,.34,1v2.1a1.33,1.33,0,0,1-.34.93,1.24,1.24,0,0,1-1,.37h-3.22a6.55,6.55,0,0,0-4.9,1.81,6.72,6.72,0,0,0-1.78,4.93v16.69a1.22,1.22,0,0,1-.4.94,1.37,1.37,0,0,1-1,.37h-2.55A1.27,1.27,0,0,1,174.19,407.85Z"/><path class="cls-1" d="M213.5,407.76a1.44,1.44,0,0,1-.45-1.06V393.81l-14-26a1.26,1.26,0,0,1-.18-.66,1.21,1.21,0,0,1,.39-.88,1.23,1.23,0,0,1,.88-.39h8a2.21,2.21,0,0,1,1.39.42,2.77,2.77,0,0,1,.79.91l8.41,15.19,8.41-15.19a2.56,2.56,0,0,1,.79-.91,2.19,2.19,0,0,1,1.39-.42h8a1.2,1.2,0,0,1,.87.39,1.18,1.18,0,0,1,.4.88,1.26,1.26,0,0,1-.18.66l-14,26V406.7a1.43,1.43,0,0,1-.46,1.09,1.54,1.54,0,0,1-1.12.43h-8.29A1.49,1.49,0,0,1,213.5,407.76Z"/><path class="cls-1" d="M239.64,405.28q-4.08-3.54-4.45-10.07-.06-.79-.06-2.73c0-1.29,0-2.2.06-2.72a13.56,13.56,0,0,1,4.57-10q4.2-3.6,11.59-3.6t11.59,3.6q4.2,3.6,4.57,10c.08,1.05.12,2,.12,2.72s0,1.68-.12,2.73q-.37,6.53-4.45,10.07t-11.71,3.54Q243.73,408.82,239.64,405.28Zm15.4-5.63a8.43,8.43,0,0,0,1.39-4.75c0-.4.06-1.21.06-2.42s0-2-.06-2.42a8.48,8.48,0,0,0-1.39-4.72,5.12,5.12,0,0,0-7.38,0,8.48,8.48,0,0,0-1.39,4.72l-.07,2.42.07,2.42a8.43,8.43,0,0,0,1.39,4.75,5.17,5.17,0,0,0,7.38,0Z"/><path class="cls-1" d="M275.69,405.25q-3.27-3.57-3.27-10.11V378.26a1.41,1.41,0,0,1,.46-1.09,1.49,1.49,0,0,1,1.05-.42H282a1.57,1.57,0,0,1,1.12.42,1.44,1.44,0,0,1,.46,1.09v16.52q0,5.63,5,5.63a4.88,4.88,0,0,0,3.78-1.48,5.9,5.9,0,0,0,1.36-4.15V378.26a1.41,1.41,0,0,1,.46-1.09,1.57,1.57,0,0,1,1.12-.42h8a1.47,1.47,0,0,1,1.09.42,1.45,1.45,0,0,1,.43,1.09V406.7a1.46,1.46,0,0,1-.43,1.06,1.43,1.43,0,0,1-1.09.46H295.9a1.55,1.55,0,0,1-1.12-.43,1.42,1.42,0,0,1-.45-1.09v-2.3q-3.15,4.43-10.05,4.42A11.09,11.09,0,0,1,275.69,405.25Z"/><path class="cls-1" d="M315.88,396.17V385H311.1a1.57,1.57,0,0,1-1.51-1.51v-5.21a1.41,1.41,0,0,1,.46-1.09,1.49,1.49,0,0,1,1.05-.42h4.78v-10a1.46,1.46,0,0,1,.46-1.09,1.5,1.5,0,0,1,1.06-.42h7.44a1.49,1.49,0,0,1,1.09.42,1.5,1.5,0,0,1,.42,1.09v10h7.57a1.59,1.59,0,0,1,1.12.42,1.43,1.43,0,0,1,.45,1.09v5.21a1.41,1.41,0,0,1-.45,1.08,1.55,1.55,0,0,1-1.12.43h-7.57v10.29a5.45,5.45,0,0,0,.79,3.2,2.9,2.9,0,0,0,2.54,1.09h4.78a1.39,1.39,0,0,1,1.09.46,1.58,1.58,0,0,1,.43,1.12v5.56a1.51,1.51,0,0,1-.43,1.06,1.43,1.43,0,0,1-1.09.46h-5.75Q315.89,408.22,315.88,396.17Z"/><path class="cls-1" d="M341.24,407.79a1.43,1.43,0,0,1-.46-1.09V366.76a1.46,1.46,0,0,1,.46-1.09,1.57,1.57,0,0,1,1.12-.42h8.17a1.61,1.61,0,0,1,1.12.42,1.45,1.45,0,0,1,.45,1.09v13.5a11.83,11.83,0,0,1,9.5-4.12,12.41,12.41,0,0,1,6.23,1.58,10.83,10.83,0,0,1,4.36,4.66,16.16,16.16,0,0,1,1.57,7.44V406.7a1.42,1.42,0,0,1-.45,1.09,1.55,1.55,0,0,1-1.12.43H364a1.47,1.47,0,0,1-1.06-.46,1.44,1.44,0,0,1-.45-1.06V390.18a6,6,0,0,0-1.33-4.14,4.87,4.87,0,0,0-3.82-1.49,5,5,0,0,0-3.81,1.49,5.81,5.81,0,0,0-1.39,4.14V406.7a1.42,1.42,0,0,1-.45,1.09,1.57,1.57,0,0,1-1.12.43h-8.17A1.54,1.54,0,0,1,341.24,407.79Z"/><path class="cls-1" d="M125.89,345.49Q118,338.86,117.56,326q-.11-2.6-.1-8.47t.1-8.67q.48-12.51,8.42-19.3t21.52-6.79a40.05,40.05,0,0,1,15.36,2.79,24.77,24.77,0,0,1,10.74,8.09,21.37,21.37,0,0,1,4.14,12.52,1.86,1.86,0,0,1-.63,1.44,2.1,2.1,0,0,1-1.49.58H162a3.06,3.06,0,0,1-2-.53,4.37,4.37,0,0,1-1.1-2q-1.35-4.73-4.1-6.6a12.66,12.66,0,0,0-7.27-1.88q-10.87,0-11.26,12.14-.11,2.6-.1,8t.1,8.18q.38,12.13,11.26,12.14a12.72,12.72,0,0,0,7.27-1.93c1.9-1.28,3.26-3.47,4.1-6.55a3.6,3.6,0,0,1,1-2,3.28,3.28,0,0,1,2-.53h13.67a2.1,2.1,0,0,1,1.49.58,1.86,1.86,0,0,1,.63,1.44,21.39,21.39,0,0,1-4.14,12.52,24.77,24.77,0,0,1-10.74,8.09,40.05,40.05,0,0,1-15.36,2.79Q133.73,352.14,125.89,345.49Z"/><path class="cls-1" d="M193.91,345.49Q186,338.86,185.54,326q-.1-2.7-.1-8.28t.1-8.38q.38-12.71,8.42-19.6t21.52-6.88q13.4,0,21.43,6.88t8.42,19.6c.13,3.72.2,6.52.2,8.38s-.07,4.68-.2,8.28q-.48,12.9-8.32,19.54t-21.53,6.65Q201.82,352.14,193.91,345.49Zm29.57-10.83q3-3,3.17-9.29c.13-3.72.2-6.39.2-8s-.07-4.21-.2-7.8q-.19-6.25-3.17-9.29a12.15,12.15,0,0,0-16.08,0q-3,3-3.18,9.29-.1,2.7-.1,7.8c0,3.46,0,6.13.1,8q.19,6.25,3.18,9.29a12.15,12.15,0,0,0,16.08,0Z"/><path class="cls-1" d="M257.13,350.45a2.3,2.3,0,0,1-.72-1.68V286.28a2.54,2.54,0,0,1,.67-1.79,2.28,2.28,0,0,1,1.74-.72h25.32q14.25,0,22.15,6.79t8.28,19.5q.09,2.79.09,7.41t-.09,7.32q-1,26.38-29.95,26.39h-25.8A2.28,2.28,0,0,1,257.13,350.45Zm27-13.72q6.06,0,9-2.89t3.08-9.24c.12-1.86.19-4.27.19-7.22s-.07-5.33-.19-7.13q-.19-6.17-3.33-9.1t-9.19-2.93h-9.15v38.51Z"/><path class="cls-1" d="M326.36,350.45a2.3,2.3,0,0,1-.72-1.68V286.28a2.54,2.54,0,0,1,.68-1.79,2.24,2.24,0,0,1,1.73-.72h45.26a2.46,2.46,0,0,1,2.5,2.51v9.53a2.26,2.26,0,0,1-.72,1.73,2.52,2.52,0,0,1-1.78.68H343.07v12.22h28.31a2.48,2.48,0,0,1,2.5,2.51v8.76a2.46,2.46,0,0,1-2.5,2.5H343.07v12.52h31.2a2.46,2.46,0,0,1,2.5,2.51v9.53a2.26,2.26,0,0,1-.72,1.73,2.52,2.52,0,0,1-1.78.68H328.05A2.31,2.31,0,0,1,326.36,350.45Z"/></svg>